<?xml version="1.0" standalone="no"?>
<!DOCTYPE svg PUBLIC "-//W3C//DTD SVG 20010904//EN"
 "http://www.w3.org/TR/2001/REC-SVG-20010904/DTD/svg10.dtd">
<svg version="1.0" xmlns="http://www.w3.org/2000/svg"
 width="348.000000pt" height="44.000000pt" viewBox="0 0 348.000000 44.000000"
 preserveAspectRatio="xMidYMid meet">

<g transform="translate(0.000000,44.000000) scale(0.100000,-0.100000)"
fill="#000000" stroke="none">
<path d="M158 289 c-10 -5 -18 -17 -18 -25 0 -8 -18 -50 -40 -94 -22 -44 -40
-84 -40 -90 0 -23 26 -7 47 28 16 29 32 41 62 50 80 25 127 92 89 130 -15 15
-76 15 -100 1z m67 -49 c0 -17 -10 -30 -33 -43 -18 -11 -35 -17 -38 -14 -3 3
4 24 16 47 24 46 55 52 55 10z"/>
<path d="M300 203 c-49 -106 -51 -114 -33 -120 14 -5 103 166 103 197 0 45
-28 14 -70 -77z"/>
<path d="M425 290 c-8 -13 8 -18 60 -22 22 -2 40 -7 39 -13 0 -5 -25 -27 -54
-48 -126 -88 -142 -122 -55 -121 62 0 105 11 105 25 0 8 -19 9 -61 5 -72 -9
-71 -2 9 53 31 21 68 51 82 66 l25 27 -24 19 c-25 21 -115 27 -126 9z"/>
<path d="M637 293 c-17 -16 -3 -23 43 -23 35 0 50 -4 50 -13 0 -7 -34 -37 -75
-66 -75 -52 -96 -76 -88 -98 9 -24 142 -8 159 19 5 8 -11 9 -57 4 -74 -9 -74
-8 29 69 71 53 86 80 56 102 -18 13 -105 18 -117 6z"/>
<path d="M865 292 c-20 -14 -98 -190 -92 -206 11 -29 134 -10 145 23 3 10 0
12 -13 8 -26 -11 -95 -20 -95 -14 0 4 8 22 17 42 13 27 23 35 44 35 15 0 34 3
43 6 28 11 17 24 -18 24 -34 0 -34 0 -23 30 10 26 17 30 64 36 29 3 56 10 59
15 6 11 -117 12 -131 1z"/>
<path d="M1160 233 c-47 -101 -63 -143 -56 -150 12 -12 33 19 75 106 39 82 45
111 21 111 -4 0 -22 -30 -40 -67z"/>
<path d="M1256 201 c-27 -54 -46 -103 -42 -110 9 -14 49 -14 98 -1 62 18 58
33 -6 25 -31 -4 -56 -4 -56 -1 0 4 18 42 41 86 37 70 43 100 21 100 -5 0 -30
-44 -56 -99z"/>
<path d="M1581 227 c-56 -120 -61 -136 -51 -142 5 -3 27 26 48 65 l39 71 11
-67 c6 -36 14 -69 17 -73 19 -18 115 153 115 205 0 34 -23 5 -51 -66 -17 -41
-34 -79 -39 -84 -5 -5 -11 13 -15 40 -12 86 -20 117 -30 120 -6 2 -25 -29 -44
-69z"/>
<path d="M1872 282 c-9 -9 -30 -38 -47 -64 -16 -26 -38 -49 -48 -52 -11 -3
-16 -9 -12 -16 4 -6 0 -22 -9 -35 -11 -17 -13 -26 -5 -31 7 -4 16 2 22 12 19
34 56 64 78 64 20 0 21 -4 15 -41 -9 -56 15 -48 29 10 6 23 17 46 25 51 11 7
12 10 2 10 -9 0 -13 12 -12 38 4 78 -3 89 -38 54z m6 -87 c-2 -1 -13 -6 -26
-10 l-23 -7 23 36 c23 35 23 35 26 10 2 -14 2 -27 0 -29z"/>
<path d="M2043 290 c-15 -6 -23 -18 -23 -32 0 -13 -18 -56 -41 -97 -26 -48
-37 -77 -30 -84 6 -6 17 2 30 24 12 19 21 36 21 39 0 3 23 14 51 24 62 21 99
56 99 90 0 40 -53 58 -107 36z m73 -35 c8 -19 -11 -42 -48 -61 -42 -22 -47
-15 -26 34 15 33 24 42 44 42 13 0 27 -7 30 -15z"/>
<path d="M2239 276 c-38 -26 -84 -89 -94 -129 -14 -53 27 -82 78 -56 87 45
143 152 101 193 -22 22 -44 20 -85 -8z m64 -44 c-2 -58 -97 -152 -125 -124
-17 17 10 77 53 122 48 49 75 50 72 2z"/>
<path d="M2386 201 c-27 -54 -46 -103 -42 -110 10 -15 60 -14 101 3 19 8 35
17 35 20 0 2 -26 2 -57 -1 l-57 -6 42 76 c39 71 53 117 34 117 -4 0 -30 -44
-56 -99z"/>
<path d="M2567 198 c-61 -132 -47 -157 17 -29 43 85 56 131 38 131 -4 0 -29
-46 -55 -102z"/>
<path d="M2675 290 c-7 -11 6 -17 43 -22 22 -3 22 -4 -18 -86 -42 -88 -46
-102 -30 -102 6 0 31 43 57 95 47 95 48 95 85 95 42 0 51 14 16 24 -37 10
-146 7 -153 -4z"/>
<path d="M2923 278 c-11 -13 -33 -42 -48 -65 -15 -23 -36 -45 -46 -48 -11 -4
-16 -11 -13 -17 4 -5 1 -21 -7 -34 -17 -33 -1 -45 20 -14 27 42 50 60 74 60
20 0 22 -4 19 -40 -6 -57 14 -50 28 10 8 35 17 50 28 50 15 0 15 2 2 10 -10 6
-15 25 -15 56 0 54 -13 64 -42 32z m12 -61 c-6 -24 -32 -44 -43 -33 -2 3 6 19
18 36 25 35 34 34 25 -3z"/>
<path d="M3061 227 c-56 -120 -61 -136 -51 -142 5 -3 27 26 48 65 l39 71 11
-67 c6 -36 14 -69 17 -73 19 -18 115 153 115 205 0 34 -23 5 -51 -66 -17 -41
-34 -79 -39 -84 -5 -5 -11 13 -15 40 -12 86 -20 117 -30 120 -6 2 -25 -29 -44
-69z"/>
<path d="M3355 289 c-81 -46 -140 -160 -103 -197 34 -34 126 21 168 101 23 44
24 49 10 74 -17 31 -45 39 -75 22z m45 -55 c0 -31 -8 -45 -49 -85 -26 -27 -53
-49 -60 -49 -40 0 -5 98 51 146 42 35 58 31 58 -12z"/>
</g>
</svg>
